<?xml version="1.0" encoding="UTF-8"?>
<svg id="Layer_1" xmlns="http://www.w3.org/2000/svg" version="1.1" viewBox="0 0 1920 1080">
  <!-- Generator: Adobe Illustrator 30.2.1, SVG Export Plug-In . SVG Version: 2.1.1 Build 1)  -->
  <path id="vulcano" d="M536.8669,1023.3869c-28.4109,6.9778-67.9832,10.9651-67.9832,10.9651,0,0,330.784-25.9173,385.5764-24.9206,54.7925.9966,426.1634,15.9491,462.6918,40.8697,36.5284,24.9206-108.7398-36.8825-140.6172-88.7173-31.8774-51.8348-118.1248-170.4566-117.1101-186.4057,1.0147-15.9491-5.0734-44.8571-21.3083-77.7522-16.2347-32.8951-89.2914-192.3869-89.2914-192.3869,0,0-19.2788-42.8633-68.998,0,0,0-29.4255,4.9842-38.5577-.9969-9.132-5.9809-33.4842-10.9651-44.6458-7.9747-11.1614,2.9904-31.455,113.6378-45.6605,148.5266-5.1354,12.6127-30.8254,64.6992-62.8795,126.4002-56.6125,108.9734-133.0769,247.9371-151.2169,252.3923l.0004.0003Z" fill="#fff" stroke="#000" stroke-miterlimit="10"/>
  <path id="lava" d="M697.4604,752.8687s13.9306,48.465,36.2533,0c22.3227-48.465,43.631-103.2901,49.7189-93.3219,6.088,9.9682-7.1028,78.7491,7.1028,69.7775,14.2055-8.9713,29.4255-60.8062,29.4255-60.8062,0,0,42.6164,8.9713,49.7189-17.9429,7.1028-26.9142,27.1563,48.8442,26.2615,56.8188-.8948,7.9747,24.4722,18.9396,22.4427-15.9491-2.0292-34.8888-2.0292-79.7457,18.2642-74.7617,20.2935,4.9842,53.7777,125.5997,37.543,127.5932-16.2347,1.9935,31.455,28.9078,29.4255,2.9904-2.0292-25.9173-21.3083-81.7395-11.1614-81.7395s48.7044,113.6378,53.7777,98.6856c5.0734-14.9525,37.543,12.2238,19.2788-16.946-18.2642-29.1698-116.6877-242.2279-116.6877-242.2279,0,0-12.4677-33.892-64.5775-9.9682-52.1099,23.9238-40.9532,4.2035-79.5084.108-38.5554-4.0954-28.9028,67.7473-41.339,108.5813-12.4364,40.8339-65.9391,149.1082-65.9391,149.1082h.0004Z" fill="#fff" stroke="#000" stroke-miterlimit="10"/>
  <path id="lava_x5F_cloud" d="M815.406,65.9306s-75.8152-55.3078-104.3397,14.7488c0,0-100.5865,2.2122-72.8126,85.543,0,0-69.81,66.3695,11.2596,67.8444,0,0-49.5426,84.068,40.5348,90.705,0,0,3.0027,54.5704,37.5324,43.5089,0,0,14.2623,46.4587,48.0414,29.4976,0,0-9.0078,49.4084,27.0232,47.1961,0,0,14.2623,33.9222,31.527,35.397,0,0,3.6748,21.1405,16.5142,22.1233s47.2908-27.2853,36.7816-42.7715c0,0,64.5555-36.1344,29.2752-71.5316,0,0,49.5426-22.8607,21.0181-56.7829,0,0,43.9757-41.2965,8.8516-71.5316,0,0,73.7195-16.2236,40.6911-52.3582,0,0-5.2546-68.5818-50.2932-70.7942,0,0,17.2647-39.0842-11.2596-47.1961,0,0,15.7635-32.4473-23.2701-33.1848,0,0-111.0954-14.0114-87.075,9.5867v.0003Z" fill="#fff" stroke="#000" stroke-miterlimit="10"/>
</svg>