<?xml version="1.0" encoding="UTF-8"?>
<svg id="Layer_1" xmlns="http://www.w3.org/2000/svg" version="1.1" viewBox="0 0 1920 1080">
  <!-- Generator: Adobe Illustrator 30.2.1, SVG Export Plug-In . SVG Version: 2.1.1 Build 1)  -->
  <g>
    <path id="vulcano" d="M728.7824,770.7173c-13.4028,3.3507-32.0709,5.2654-32.0709,5.2654,0,0,156.0465-12.4454,181.8947-11.9668s201.0415,7.6587,218.2737,19.6255-51.2977-17.7108-66.3358-42.6017c-15.0381-24.8909-55.7251-81.8526-55.2464-89.5113.4787-7.6587-2.3934-21.5402-10.0521-37.3363-7.6587-15.7961-42.123-92.3834-42.123-92.3834,0,0-9.0947-20.5828-32.5496,0,0,0-13.8814,2.3934-18.1895-.4787-4.308-2.872-15.7961-5.2654-21.0615-3.8294-5.2654,1.436-14.8388,54.5684-21.5402,71.3219-2.4226,6.0566-14.5418,31.0683-29.6633,60.6969-26.7068,52.3286-62.7787,119.0584-71.3362,121.1978Z" fill="#fff" stroke="#000" stroke-miterlimit="10"/>
    <path id="lava" d="M804.542,640.8155s6.5717,23.2727,17.1024,0c10.5307-23.2727,20.5828-49.5995,23.4548-44.8128,2.872,4.7867-3.3507,37.815,3.3507,33.5069,6.7014-4.308,13.8814-29.1989,13.8814-29.1989,0,0,20.1042,4.308,23.4548-8.6161,3.3507-12.9241,12.8109,23.4548,12.3888,27.2842-.4221,3.8294,11.5447,9.0947,10.5873-7.6587-.9573-16.7535-.9573-38.2936,8.6161-35.9003,9.5734,2.3934,25.3695,60.3125,17.7108,61.2698s14.8388,13.8814,13.8814,1.436c-.9573-12.4454-10.0521-39.251-5.2654-39.251s22.9762,54.5684,25.3695,47.3884c2.3934-7.1801,17.7108,5.8698,9.0947-8.1374-8.6161-14.0072-55.0471-116.3169-55.0471-116.3169,0,0-5.8816-16.2748-30.4643-4.7867-24.5827,11.4881-19.3196,2.0185-37.5079.0519-18.1884-1.9666-13.6348,32.532-19.5016,52.1403-5.8668,19.6083-31.1066,71.6012-31.1066,71.6012Z" fill="#fff" stroke="#000" stroke-miterlimit="10"/>
    <path id="lava_x5F_cloud" d="M860.1825,310.9505s-35.7656-26.5586-49.222,7.0823c0,0-47.4514,1.0623-34.3492,41.0774,0,0-32.9327,31.8704,5.3117,32.5786,0,0-23.3716,40.3691,19.1222,43.5562,0,0,1.4165,26.2045,17.7058,20.8928,0,0,6.7282,22.3093,22.6634,14.1646,0,0-4.2494,23.7257,12.7481,22.6634,0,0,6.7282,16.2893,14.8728,16.9975,0,0,1.7336,10.1516,7.7905,10.6235s22.3093-13.1023,17.3516-20.5387c0,0,30.4539-17.3516,13.8105-34.3492,0,0,23.3716-10.9776,9.9152-27.2669,0,0,20.7454-19.8304,4.1757-34.3492,0,0,34.777-7.7905,19.1959-25.1422,0,0-2.4788-32.9327-23.7257-33.9951,0,0,8.1446-18.7681-5.3117-22.6634,0,0,7.4364-15.5811-10.9776-15.9352,0,0-52.409-6.7282-41.0774,4.6035Z" fill="#fff" stroke="#000" stroke-miterlimit="10"/>
  </g>
  <text transform="translate(959.0068 557.6382)" font-family="CourierNewPSMT, &apos;Courier New&apos;" font-size="36"><tspan x="0" y="0">Final Orbit</tspan></text>
</svg>